0
SECTION
2
HEADER
9
$INSUNITS
70
4
0
ENDSEC
0
SECTION
2
TABLES
0
TABLE
2
LTYPE
0
LTYPE
72
65
70
64
2
CONTINUOUS
3
______
73
0
40
0
0
ENDTAB
0
TABLE
2
LAYER
0
ENDTAB
0
ENDSEC
0
SECTION
2
ENTITIES
0
LINE
8
0
10
-6.25
20
-11
11
-6
21
-11
0
LINE
8
0
10
4
20
-11
11
6.25
21
-11
0
ARC
8
0
10
6.25
20
-9.5
40
1.5
50
270
51
360
0
LINE
8
0
10
7.75
20
-9.5
11
7.75
21
28
0
LINE
8
0
10
7.75
20
36
11
7.75
21
39.5
0
ARC
8
0
10
6.25
20
39.5
40
1.5
50
0
51
90
0
LINE
8
0
10
6.25
20
41
11
-6.25
21
41
0
ARC
8
0
10
-6.25
20
39.5
40
1.5
50
90
51
180
0
LINE
8
0
10
-7.75
20
39.5
11
-7.75
21
-9.5
0
ARC
8
0
10
-6.25
20
-9.5
40
1.5
50
180
51
270
0
LINE
8
0
10
10.75
20
-11
11
23.25
21
-11
0
ARC
8
0
10
23.25
20
-9.5
40
1.5
50
270
51
360
0
LINE
8
0
10
24.75
20
-9.5
11
24.75
21
-3.5
0
LINE
8
0
10
24.75
20
4.5
11
24.75
21
39.5
0
ARC
8
0
10
23.25
20
39.5
40
1.5
50
0
51
90
0
LINE
8
0
10
23.25
20
41
11
10.75
21
41
0
ARC
8
0
10
10.75
20
39.5
40
1.5
50
90
51
180
0
LINE
8
0
10
9.25
20
39.5
11
9.25
21
36
0
LINE
8
0
10
9.25
20
28
11
9.25
21
-9.5
0
ARC
8
0
10
10.75
20
-9.5
40
1.5
50
180
51
270
0
LINE
8
0
10
27.75
20
-6
11
40.25
21
-6
0
ARC
8
0
10
40.25
20
-4.5
40
1.5
50
270
51
360
0
LINE
8
0
10
41.75
20
-4.5
11
41.75
21
34.5
0
LINE
8
0
10
41.75
20
42.5
11
41.75
21
44.5
0
ARC
8
0
10
40.25
20
44.5
40
1.5
50
0
51
90
0
LINE
8
0
10
40.25
20
46
11
27.75
21
46
0
ARC
8
0
10
27.75
20
44.5
40
1.5
50
90
51
180
0
LINE
8
0
10
26.25
20
44.5
11
26.25
21
4.5
0
LINE
8
0
10
26.25
20
-3.5
11
26.25
21
-4.5
0
ARC
8
0
10
27.75
20
-4.5
40
1.5
50
180
51
270
0
LINE
8
0
10
44.75
20
-3
11
57.25
21
-3
0
ARC
8
0
10
57.25
20
-1.5
40
1.5
50
270
51
360
0
LINE
8
0
10
58.75
20
-1.5
11
58.75
21
0
0
LINE
8
0
10
58.75
20
8
11
58.75
21
47.5
0
ARC
8
0
10
57.25
20
47.5
40
1.5
50
0
51
90
0
LINE
8
0
10
57.25
20
49
11
44.75
21
49
0
ARC
8
0
10
44.75
20
47.5
40
1.5
50
90
51
180
0
LINE
8
0
10
43.25
20
47.5
11
43.25
21
42.5
0
LINE
8
0
10
43.25
20
34.5
11
43.25
21
-1.5
0
ARC
8
0
10
44.75
20
-1.5
40
1.5
50
180
51
270
0
LINE
8
0
10
61.75
20
-7
11
74.25
21
-7
0
ARC
8
0
10
74.25
20
-5.5
40
1.5
50
270
51
360
0
LINE
8
0
10
75.75
20
-5.5
11
75.75
21
13.6369481
0
LINE
8
0
10
75.75
20
23
11
75.75
21
43.5
0
ARC
8
0
10
74.25
20
43.5
40
1.5
50
0
51
90
0
LINE
8
0
10
74.25
20
45
11
61.75
21
45
0
ARC
8
0
10
61.75
20
43.5
40
1.5
50
90
51
180
0
LINE
8
0
10
60.25
20
43.5
11
60.25
21
8
0
LINE
8
0
10
60.25
20
0
11
60.25
21
-5.5
0
ARC
8
0
10
61.75
20
-5.5
40
1.5
50
180
51
270
0
LINE
8
0
10
7.75
20
28
11
9.25
21
28
0
LINE
8
0
10
9.25
20
36
11
7.75
21
36
0
LINE
8
0
10
24.75
20
-3.5
11
26.25
21
-3.5
0
LINE
8
0
10
26.25
20
4.5
11
24.75
21
4.5
0
LINE
8
0
10
41.75
20
34.5
11
43.25
21
34.5
0
LINE
8
0
10
43.25
20
42.5
11
41.75
21
42.5
0
LINE
8
0
10
58.75
20
0
11
60.25
21
0
0
LINE
8
0
10
60.25
20
8
11
58.75
21
8
0
LINE
8
0
10
76.6509298
20
12.9549172
11
89.2079655
21
9.5902696
0
ARC
8
0
10
89.5961941
20
11.0391583
40
1.5
50
255
51
345
0
LINE
8
0
10
91.0450828
20
10.6509298
11
94.4097304
21
23.2079655
0
ARC
8
0
10
92.9608417
20
23.5961941
40
1.5
50
345
51
75
0
LINE
8
0
10
93.3490702
20
25.0450828
11
80.7920345
21
28.4097304
0
ARC
8
0
10
80.4038059
20
26.9608417
40
1.5
50
75
51
165
0
LINE
8
0
10
78.9549172
20
27.3490702
11
77.7895873
21
23
0
ARC
8
0
10
77.0391583
20
14.4038059
40
1.5
50
210.746363
51
255
0
LINE
8
0
10
77.7895873
20
23
11
75.75
21
23
0
LINE
8
0
10
-7.8232245
20
-32.1656311
11
6.9488917
21
-29.5609084
0
ARC
8
0
10
6.6884195
20
-28.0836968
40
1.5
50
280
51
10
0
LINE
8
0
10
8.1656311
20
-27.8232245
11
5.5609084
21
-13.0511083
0
ARC
8
0
10
4.0836968
20
-13.3115805
40
1.5
50
10
51
93.1986436
0
LINE
8
0
10
-6
20
-13.5664685
11
-10.9488917
21
-14.4390916
0
ARC
8
0
10
-10.6884195
20
-15.9163032
40
1.5
50
100
51
190
0
LINE
8
0
10
-12.1656311
20
-16.1767755
11
-9.5609084
21
-30.9488917
0
ARC
8
0
10
-8.0836968
20
-30.6884195
40
1.5
50
190
51
280
0
LINE
8
0
10
-24.5409403
20
-38.7995306
11
-13.4064144
21
-35.3953643
0
ARC
8
0
10
-10.6349265
20
-32.9794979
40
1.5
50
317.1301944
51
17
0
LINE
8
0
10
-9.2004694
20
-32.5409403
11
-13.586045
21
-18.196369
0
ARC
8
0
10
-15.0205021
20
-18.6349265
40
1.5
50
17
51
107
0
LINE
8
0
10
-15.4590597
20
-17.2004694
11
-29.803631
21
-21.586045
0
ARC
8
0
10
-29.3650735
20
-23.0205021
40
1.5
50
107
51
197
0
LINE
8
0
10
-30.7995306
20
-23.4590597
11
-26.413955
21
-37.803631
0
ARC
8
0
10
-24.9794979
20
-37.3650735
40
1.5
50
197
51
287
0
LINE
8
0
10
4
20
-11.8139174
11
4
21
-11
0
LINE
8
0
10
-6
20
-11
11
-6
21
-13.5664685
0
LINE
8
0
10
-11.5
20
-58
11
79.5
21
-58
0
ARC
8
0
10
79.5
20
-56
40
2
50
270
51
360
0
LINE
8
0
10
81.5
20
-56
11
81.5
21
-36
0
ARC
8
0
10
79.5
20
-36
40
2
50
0
51
90
0
LINE
8
0
10
79.5
20
-34
11
-9.5355742
21
-34
0
ARC
8
0
10
-11.5
20
-36
40
2
50
162.4031286
51
180
0
LINE
8
0
10
-13.5
20
-36
11
-13.5
21
-56
0
ARC
8
0
10
-11.5
20
-56
40
2
50
180
51
270
0
ENDSEC
0
EOF