0
SECTION
2
HEADER
9
$INSUNITS
70
4
0
ENDSEC
0
SECTION
2
TABLES
0
TABLE
2
LTYPE
0
LTYPE
72
65
70
64
2
CONTINUOUS
3
______
73
0
40
0
0
ENDTAB
0
TABLE
2
LAYER
0
ENDTAB
0
ENDSEC
0
SECTION
2
ENTITIES
0
LINE
8
0
10
-9
20
7
11
9
21
7
0
LINE
8
0
10
9
20
7
11
9
21
-11
0
LINE
8
0
10
9
20
-11
11
-9
21
-11
0
LINE
8
0
10
-9
20
-11
11
-9
21
7
0
LINE
8
0
10
-9
20
24
11
9
21
24
0
LINE
8
0
10
9
20
24
11
9
21
6
0
LINE
8
0
10
9
20
6
11
-9
21
6
0
LINE
8
0
10
-9
20
6
11
-9
21
24
0
LINE
8
0
10
-9
20
41
11
9
21
41
0
LINE
8
0
10
9
20
41
11
9
21
23
0
LINE
8
0
10
9
20
23
11
-9
21
23
0
LINE
8
0
10
-9
20
23
11
-9
21
41
0
LINE
8
0
10
8
20
7
11
26
21
7
0
LINE
8
0
10
26
20
7
11
26
21
-11
0
LINE
8
0
10
26
20
-11
11
8
21
-11
0
LINE
8
0
10
8
20
-11
11
8
21
7
0
LINE
8
0
10
8
20
24
11
26
21
24
0
LINE
8
0
10
26
20
24
11
26
21
6
0
LINE
8
0
10
26
20
6
11
8
21
6
0
LINE
8
0
10
8
20
6
11
8
21
24
0
LINE
8
0
10
8
20
41
11
26
21
41
0
LINE
8
0
10
26
20
41
11
26
21
23
0
LINE
8
0
10
26
20
23
11
8
21
23
0
LINE
8
0
10
8
20
23
11
8
21
41
0
LINE
8
0
10
25
20
12
11
43
21
12
0
LINE
8
0
10
43
20
12
11
43
21
-6
0
LINE
8
0
10
43
20
-6
11
25
21
-6
0
LINE
8
0
10
25
20
-6
11
25
21
12
0
LINE
8
0
10
25
20
29
11
43
21
29
0
LINE
8
0
10
43
20
29
11
43
21
11
0
LINE
8
0
10
43
20
11
11
25
21
11
0
LINE
8
0
10
25
20
11
11
25
21
29
0
LINE
8
0
10
25
20
46
11
43
21
46
0
LINE
8
0
10
43
20
46
11
43
21
28
0
LINE
8
0
10
43
20
28
11
25
21
28
0
LINE
8
0
10
25
20
28
11
25
21
46
0
LINE
8
0
10
42
20
15
11
60
21
15
0
LINE
8
0
10
60
20
15
11
60
21
-3
0
LINE
8
0
10
60
20
-3
11
42
21
-3
0
LINE
8
0
10
42
20
-3
11
42
21
15
0
LINE
8
0
10
42
20
32
11
60
21
32
0
LINE
8
0
10
60
20
32
11
60
21
14
0
LINE
8
0
10
60
20
14
11
42
21
14
0
LINE
8
0
10
42
20
14
11
42
21
32
0
LINE
8
0
10
42
20
49
11
60
21
49
0
LINE
8
0
10
60
20
49
11
60
21
31
0
LINE
8
0
10
60
20
31
11
42
21
31
0
LINE
8
0
10
42
20
31
11
42
21
49
0
LINE
8
0
10
59
20
11
11
77
21
11
0
LINE
8
0
10
77
20
11
11
77
21
-7
0
LINE
8
0
10
77
20
-7
11
59
21
-7
0
LINE
8
0
10
59
20
-7
11
59
21
11
0
LINE
8
0
10
59
20
28
11
77
21
28
0
LINE
8
0
10
77
20
28
11
77
21
10
0
LINE
8
0
10
77
20
10
11
59
21
10
0
LINE
8
0
10
59
20
10
11
59
21
28
0
LINE
8
0
10
59
20
45
11
77
21
45
0
LINE
8
0
10
77
20
45
11
77
21
27
0
LINE
8
0
10
77
20
27
11
59
21
27
0
LINE
8
0
10
59
20
27
11
59
21
45
0
LINE
8
0
10
78.636039
20
30.0227038
11
96.0227038
21
25.363961
0
LINE
8
0
10
96.0227038
20
25.363961
11
91.363961
21
7.9772962
0
LINE
8
0
10
91.363961
20
7.9772962
11
73.9772962
21
12.636039
0
LINE
8
0
10
73.9772962
20
12.636039
11
78.636039
21
30.0227038
0
LINE
8
0
10
15.6209477
20
-12.4645851
11
32.5354149
21
-18.6209477
0
LINE
8
0
10
32.5354149
20
-18.6209477
11
26.3790523
21
-35.5354149
0
LINE
8
0
10
26.3790523
20
-35.5354149
11
9.4645851
21
-29.3790523
0
LINE
8
0
10
9.4645851
20
-29.3790523
11
15.6209477
21
-12.4645851
0
LINE
8
0
10
36.3633237
20
-17.5233125
11
50.5475173
21
-28.6052191
0
LINE
8
0
10
50.5475173
20
-28.6052191
11
39.4656107
21
-42.7894127
0
LINE
8
0
10
39.4656107
20
-42.7894127
11
25.2814171
21
-31.7075061
0
LINE
8
0
10
25.2814171
20
-31.7075061
11
36.3633237
21
-17.5233125
0
ENDSEC
0
EOF