<svg width="105.023mm" height="91.789mm" viewBox="0 0 105.023 91.789" xmlns="http://www.w3.org/2000/svg"><g id="svgGroup" stroke-linecap="round" fill-rule="evenodd" font-size="9pt" stroke="#000" stroke-width="0.25mm" fill="none" style="stroke:#000;stroke-width:0.25mm;fill:none"><path d="M 45.363 66.523 L 59.548 77.605 L 48.466 91.789 L 34.281 80.708 L 45.363 66.523 Z M 24.621 61.465 L 41.535 67.621 L 35.379 84.535 L 18.465 78.379 L 24.621 61.465 Z M 0 42 L 18 42 L 18 60 L 0 60 L 0 42 Z M 0 25 L 18 25 L 18 43 L 0 43 L 0 25 Z M 0 8 L 18 8 L 18 26 L 0 26 L 0 8 Z M 17 42 L 35 42 L 35 60 L 17 60 L 17 42 Z M 17 25 L 35 25 L 35 43 L 17 43 L 17 25 Z M 17 8 L 35 8 L 35 26 L 17 26 L 17 8 Z M 34 37 L 52 37 L 52 55 L 34 55 L 34 37 Z M 34 20 L 52 20 L 52 38 L 34 38 L 34 20 Z M 34 3 L 52 3 L 52 21 L 34 21 L 34 3 Z M 51 34 L 69 34 L 69 52 L 51 52 L 51 34 Z M 51 17 L 69 17 L 69 35 L 51 35 L 51 17 Z M 51 0 L 69 0 L 69 18 L 51 18 L 51 0 Z M 68 38 L 86 38 L 86 56 L 68 56 L 68 38 Z M 68 21 L 86 21 L 86 39 L 68 39 L 68 21 Z M 68 4 L 86 4 L 86 22 L 68 22 L 68 4 Z M 87.636 18.977 L 105.023 23.636 L 100.364 41.023 L 82.977 36.364 L 87.636 18.977 Z" vector-effect="non-scaling-stroke"/></g></svg>